<svg xmlns="http://www.w3.org/2000/svg" viewBox="0 0 177 102" width="177" height="102">
	<style>
		tspan { white-space:pre }
	</style>
	<path id="Biolotus  Site " fill="#000000" d="M34.68 30.25Q36.02 30.64 36.99 31.73Q38.01 32.81 38.43 34.14Q38.88 35.47 38.67 36.84Q38.46 38.16 37.38 39.11Q36.36 40.05 34.47 40.44Q32.62 40.83 30.38 40.93Q28.17 41 25.86 40.93Q23.55 40.83 21.63 40.79Q20.89 40.79 20.58 40.58Q20.3 40.37 20.19 39.98Q20.13 39.6 20.16 39.08Q20.23 38.52 20.23 37.81Q20.23 35.44 20.27 32.91Q20.33 30.36 20.37 27.88Q20.44 25.39 20.44 23.01Q20.44 20.59 20.33 18.46Q20.44 17.9 20.47 17.51Q20.55 17.13 21.07 16.88Q21.59 16.64 22.78 16.53Q24.01 16.43 26.39 16.43Q27.86 16.43 29.43 16.57Q31.04 16.67 32.41 16.81Q33.42 16.92 34.44 17.48Q35.49 18.04 36.36 18.84Q37.24 19.65 37.83 20.63Q38.43 21.61 38.53 22.55Q38.78 23.71 38.6 24.9Q38.43 26.09 37.91 27.14Q37.41 28.16 36.57 28.99Q35.77 29.8 34.68 30.25ZM29.12 18.77Q29.12 20 29.05 21.33Q29.01 22.66 28.98 23.99Q28.94 25.32 28.94 26.58Q28.98 27.84 29.12 28.92Q30.97 29.17 32.44 28.71Q33.91 28.26 34.82 27.28Q35.73 26.3 36.02 24.9Q36.3 23.46 35.77 21.75Q35.56 21.05 34.96 20.49Q34.37 19.93 33.46 19.54Q32.58 19.16 31.46 18.98Q30.34 18.77 29.12 18.77ZM29.12 38.97Q30.34 38.97 31.53 38.87Q32.76 38.73 33.7 38.38Q34.65 38.02 35.24 37.39Q35.84 36.73 35.84 35.64Q35.84 34.59 35.28 33.79Q34.75 32.95 33.81 32.46Q32.9 31.93 31.64 31.76Q30.41 31.59 29.05 31.86Q29.05 32.67 29.05 33.62Q29.05 34.52 29.05 35.47Q29.05 36.41 29.05 37.33Q29.08 38.23 29.12 38.97ZM55.16 19.82Q55.37 19.82 55.47 19.96Q55.61 20.1 55.65 20.31Q55.72 20.49 55.72 20.7Q55.75 20.87 55.75 20.98Q55.65 21.43 55.3 21.61Q54.95 21.75 54.53 21.78Q54.11 21.78 53.69 21.78Q53.3 21.75 53.09 21.85Q52.88 24.72 52.99 27.8Q53.09 30.85 53.09 34.17Q53.09 35.51 53.13 36.59Q53.16 37.67 53.41 38.59Q54.07 38.59 54.42 38.62Q54.77 38.66 55.44 38.87Q55.65 39.08 55.72 39.39Q55.79 39.7 55.69 39.98Q55.58 40.27 55.3 40.48Q55.02 40.65 54.56 40.65Q53.34 40.65 51.77 40.72Q50.22 40.76 48.47 40.83Q46.72 40.86 44.83 40.9Q42.95 40.93 41.09 40.93Q40.63 40.83 40.42 40.55Q40.25 40.23 40.21 39.91Q40.21 39.56 40.28 39.28Q40.39 38.97 40.49 38.87Q40.6 38.66 40.95 38.62Q41.3 38.59 41.72 38.62Q42.17 38.66 42.63 38.69Q43.08 38.69 43.43 38.59Q43.64 34.59 43.54 30.22Q43.43 25.84 43.43 21.85Q42.88 21.75 42.24 21.71Q41.65 21.68 41.13 21.57Q40.6 21.47 40.25 21.22Q39.9 20.94 39.9 20.38Q40 19.96 40.28 19.79Q40.6 19.58 40.98 19.54Q41.37 19.47 41.79 19.51Q42.21 19.51 42.52 19.51L49 19.51Q50.57 19.51 52.19 19.54Q53.83 19.58 55.16 19.82ZM64.02 19.54Q66.53 19.4 68.42 19.72Q70.31 20 71.68 20.84Q73.08 21.64 74.03 22.97Q74.97 24.3 75.56 26.23Q75.81 27.03 75.91 27.73Q76.06 28.4 76.06 29.2Q76.09 30.01 76.02 31.06Q75.98 32.08 75.84 33.55Q75.6 35.44 74.55 37.05Q73.5 38.66 71.89 39.77Q70.28 40.86 68.25 41.35Q66.22 41.84 64.02 41.49Q61.81 41.17 59.95 40.02Q58.13 38.87 56.88 37.05Q56.1 36.03 55.68 34.63Q55.27 33.2 55.13 31.69Q55.02 30.15 55.2 28.64Q55.41 27.1 55.89 25.84Q56.42 24.69 57.26 23.6Q58.1 22.52 59.15 21.68Q60.2 20.8 61.42 20.24Q62.69 19.65 64.02 19.54ZM70.84 23.04Q70.31 22.59 69.37 22.2Q68.46 21.82 67.55 21.68Q66.64 21.5 65.94 21.64Q65.24 21.75 65.1 22.31Q64.96 23.11 64.96 24.3Q64.96 25.46 65 26.79Q65.06 28.12 65.1 29.55Q65.17 30.95 65.13 32.22Q65.1 32.91 65.06 33.89Q65.03 34.88 65.13 35.82Q65.28 36.73 65.63 37.47Q65.97 38.16 66.75 38.3Q68.46 38.66 69.75 38.02Q71.09 37.36 71.96 36.06Q72.84 34.73 73.22 32.98Q73.64 31.23 73.53 29.45Q73.43 27.63 72.77 25.95Q72.1 24.23 70.84 23.04ZM87.33 20.45Q87.4 23.22 87.36 25.21Q87.36 27.21 87.29 28.71Q87.25 30.22 87.19 31.38Q87.12 32.49 87.08 33.62Q87.08 34.7 87.12 35.89Q87.15 37.05 87.33 38.59Q87.89 38.59 88.55 38.62Q89.25 38.62 89.78 38.8Q90.34 38.94 90.62 39.25Q90.9 39.56 90.69 40.13Q90.58 40.44 90.13 40.58Q89.67 40.72 89.08 40.76Q88.52 40.79 87.92 40.76Q87.33 40.72 86.98 40.72Q84.98 40.72 83.62 40.79Q82.25 40.86 81.34 40.9Q80.47 40.93 79.94 40.86Q79.42 40.76 79.14 40.48Q78.86 40.16 78.68 39.56Q78.54 38.97 78.4 37.99Q78.4 37.6 78.4 36.7Q78.4 35.78 78.37 34.59Q78.37 33.37 78.33 32Q78.33 30.6 78.3 29.31Q78.26 28.02 78.19 26.89Q78.16 25.77 78.09 25.11Q78.09 23.92 78.12 22.66Q78.16 21.4 78.4 20.45Q78.47 19.93 79.14 19.58Q79.8 19.19 80.75 19.02Q81.72 18.84 82.84 18.84Q83.97 18.84 84.91 19.02Q85.89 19.19 86.56 19.58Q87.22 19.93 87.33 20.45ZM98.88 19.54Q101.39 19.4 103.28 19.72Q105.17 20 106.54 20.84Q107.94 21.64 108.88 22.97Q109.83 24.3 110.42 26.23Q110.67 27.03 110.78 27.73Q110.91 28.4 110.91 29.2Q110.95 30.01 110.88 31.06Q110.84 32.08 110.7 33.55Q110.46 35.44 109.41 37.05Q108.36 38.66 106.75 39.77Q105.14 40.86 103.11 41.35Q101.08 41.84 98.88 41.49Q96.67 41.17 94.81 40.02Q93 38.87 91.73 37.05Q90.97 36.03 90.55 34.63Q90.13 33.2 89.98 31.69Q89.88 30.15 90.05 28.64Q90.27 27.1 90.75 25.84Q91.28 24.69 92.12 23.6Q92.96 22.52 94.01 21.68Q95.06 20.8 96.28 20.24Q97.55 19.65 98.88 19.54ZM105.7 23.04Q105.17 22.59 104.23 22.2Q103.32 21.82 102.41 21.68Q101.5 21.5 100.8 21.64Q100.1 21.75 99.96 22.31Q99.82 23.11 99.82 24.3Q99.82 25.46 99.86 26.79Q99.92 28.12 99.96 29.55Q100.03 30.95 100 32.22Q99.96 32.91 99.92 33.89Q99.89 34.88 100 35.82Q100.13 36.73 100.48 37.47Q100.83 38.16 101.61 38.3Q103.32 38.66 104.61 38.02Q105.94 37.36 106.82 36.06Q107.69 34.73 108.08 32.98Q108.5 31.23 108.39 29.45Q108.29 27.63 107.63 25.95Q106.96 24.23 105.7 23.04ZM123.09 21.75Q123.03 21.85 122.99 22.41Q122.95 22.94 122.95 23.78Q122.95 24.62 122.95 25.63Q122.99 26.65 123.03 27.7Q123.06 28.71 123.06 29.7Q123.09 30.64 123.09 31.34L123.09 38.9Q123.09 39.35 123.03 39.91Q122.95 40.48 122.53 40.65Q122.36 40.72 121.83 40.76Q121.34 40.79 120.64 40.83Q119.98 40.83 119.21 40.83Q118.44 40.83 117.74 40.83Q117.07 40.79 116.58 40.79Q116.09 40.76 115.95 40.76Q115.25 40.76 114.87 40.58Q114.48 40.41 114.48 39.6L114.48 34.07L114.48 21.92Q114.48 21.78 113.96 21.75Q113.47 21.71 112.8 21.75Q112.17 21.75 111.58 21.78Q111.02 21.78 110.91 21.75Q110.39 21.71 110.11 21.64Q109.86 21.54 109.76 21.36Q109.69 21.19 109.69 20.87Q109.72 20.52 109.72 20Q109.94 19.68 110.22 19.58Q110.5 19.44 110.77 19.44Q111.09 19.4 111.41 19.44Q111.72 19.47 112.03 19.47L126.28 19.47Q126.84 19.47 127.16 19.51Q127.5 19.51 127.68 19.61Q127.89 19.72 127.96 19.96Q128.03 20.21 128.03 20.63Q128.03 21.01 127.82 21.22Q127.64 21.43 127.36 21.57Q127.12 21.68 126.8 21.71Q126.53 21.75 126.28 21.75Q125.44 21.75 124.6 21.64Q123.76 21.54 123.09 21.75ZM137.16 19.79Q137.55 20.84 137.58 22.52Q137.62 24.2 137.58 26.13Q137.55 28.05 137.55 30.01Q137.55 31.97 137.83 33.55Q138.11 35.12 138.81 36.13Q139.51 37.12 140.91 37.12Q142.03 36.98 142.69 35.92Q143.39 34.84 143.75 33.34Q144.09 31.8 144.2 29.98Q144.31 28.12 144.27 26.44Q144.27 24.72 144.2 23.36Q144.13 21.96 144.13 21.29Q144.13 20.73 144.24 20.28Q144.31 19.89 144.44 19.58Q144.62 19.26 144.94 19.26Q145.56 19.26 145.91 19.37Q146.26 19.47 146.44 19.72Q146.62 19.96 146.65 20.42Q146.69 20.87 146.69 21.54L146.69 27.07Q146.69 28.68 146.62 30.01Q146.55 31.3 146.37 32.46Q146.19 33.58 145.84 34.59Q145.5 35.61 144.94 36.59Q144.51 37.47 143.85 38.27Q143.22 39.08 142.24 39.67Q141.3 40.27 140.03 40.55Q138.78 40.79 137.16 40.58Q135.03 40.37 133.59 39.49Q132.19 38.59 131.28 37.22Q130.41 35.82 129.95 34.07Q129.5 32.32 129.29 30.43Q129.12 28.54 129.08 26.65Q129.08 24.72 129.08 23.01L129.08 20.73Q129.08 20.21 129.32 19.86Q129.57 19.51 129.92 19.33Q130.31 19.12 130.76 19.05Q131.25 18.95 131.67 18.95L133.94 18.95Q134.5 18.95 135.03 18.98Q135.56 18.98 136.01 19.05Q136.47 19.12 136.75 19.3Q137.06 19.47 137.16 19.79ZM160.51 20.17Q160.97 20.35 161.38 20.66Q161.81 20.94 162.05 21.29Q162.33 21.61 162.4 21.96Q162.5 22.27 162.33 22.48Q161.91 22.97 161.28 22.87Q160.69 22.73 160.19 22.48Q160.09 22.48 159.6 22.24Q159.11 21.96 158.41 21.75Q157.75 21.5 156.98 21.47Q156.24 21.43 155.61 21.89Q154.94 22.34 154.7 23.01Q154.46 23.67 154.49 24.34Q154.56 25 154.84 25.6Q155.16 26.2 155.61 26.51Q157.01 27.84 158.17 28.71Q159.32 29.59 160.16 30.32Q161.03 31.06 161.56 31.86Q162.12 32.67 162.33 33.89Q162.75 35.99 162.09 37.43Q161.45 38.83 160.16 39.63Q158.87 40.44 157.19 40.72Q155.5 41 153.9 40.86Q152.28 40.69 150.96 40.16Q149.66 39.6 149.1 38.8Q149.06 38.73 148.86 38.48Q148.68 38.2 148.5 37.85Q148.37 37.5 148.3 37.15Q148.26 36.77 148.54 36.48Q148.89 36.13 149.17 36.1Q149.45 36.06 149.66 36.2Q149.91 36.34 150.08 36.63Q150.25 36.87 150.36 37.12Q150.78 37.74 151.69 38.13Q152.6 38.52 153.55 38.48Q154.53 38.45 155.3 37.92Q156.1 37.39 156.24 36.2Q156.24 34.88 155.65 34.17Q155.05 33.48 154.18 33.02Q153.34 32.53 152.36 32.11Q151.41 31.69 150.64 30.95Q149.66 30.18 148.96 29.48Q148.26 28.75 147.84 27.88Q147.42 27 147.28 25.88Q147.18 24.72 147.38 23.11Q147.53 21.78 148.86 20.8Q150.19 19.79 152.11 19.33Q154.03 18.88 156.28 19.05Q158.55 19.19 160.51 20.17ZM70.75 59.06Q71.28 59.23 71.8 59.58Q72.36 59.94 72.71 60.35Q73.06 60.77 73.13 61.27Q73.24 61.72 72.85 62.17Q72.64 62.38 72.33 62.42Q72.05 62.42 71.73 62.35Q71.42 62.28 71.07 62.14Q70.75 62 70.51 61.93Q69.46 61.51 68.44 61.3Q67.57 61.13 66.59 61.09Q65.64 61.05 64.87 61.44Q64.21 61.93 63.96 62.7Q63.75 63.44 63.82 64.24Q63.93 65.01 64.24 65.78Q64.59 66.52 65.08 67Q66.8 68.44 68.13 69.38Q69.49 70.33 70.44 71.2Q71.42 72.05 72.01 73.03Q72.64 73.97 72.85 75.41Q73.38 77.85 72.64 79.47Q71.94 81.08 70.51 82.02Q69.07 82.93 67.15 83.25Q65.26 83.56 63.4 83.42Q61.58 83.25 60.01 82.69Q58.47 82.13 57.77 81.32Q57.28 80.76 56.89 80.2Q56.51 79.64 56.4 79.19Q56.3 78.69 56.51 78.34Q56.75 78 57.49 77.89Q57.73 77.85 57.91 78Q58.12 78.1 58.29 78.28Q58.47 78.41 58.61 78.63Q58.75 78.8 58.89 78.94Q59.45 79.85 60.71 80.38Q61.97 80.9 63.3 80.9Q64.66 80.9 65.71 80.27Q66.76 79.64 66.9 78.2Q66.9 77.26 66.48 76.59Q66.06 75.93 65.36 75.47Q64.7 74.98 63.82 74.67Q62.98 74.32 62.07 74Q61.2 73.66 60.36 73.31Q59.55 72.92 58.96 72.39Q57.91 71.45 57.1 70.58Q56.33 69.7 55.84 68.65Q55.35 67.56 55.21 66.16Q55.07 64.77 55.32 62.77Q55.63 61.33 57.14 60.25Q58.64 59.13 60.85 58.57Q63.05 58.01 65.64 58.11Q68.27 58.19 70.75 59.06ZM89.51 61.83Q89.72 61.83 89.83 61.96Q89.97 62.1 90 62.31Q90.07 62.49 90.07 62.7Q90.11 62.88 90.11 62.98Q90 63.44 89.65 63.61Q89.3 63.75 88.88 63.78Q88.46 63.78 88.04 63.78Q87.66 63.75 87.45 63.85Q87.24 66.72 87.34 69.81Q87.45 72.85 87.45 76.17Q87.45 77.5 87.48 78.59Q87.52 79.67 87.76 80.59Q88.43 80.59 88.78 80.62Q89.13 80.66 89.79 80.87Q90 81.08 90.07 81.39Q90.14 81.7 90.04 81.98Q89.93 82.27 89.65 82.47Q89.37 82.65 88.92 82.65Q87.69 82.65 86.12 82.72Q84.58 82.75 82.83 82.83Q81.08 82.86 79.19 82.9Q77.3 82.93 75.44 82.93Q74.99 82.83 74.78 82.55Q74.6 82.23 74.57 81.91Q74.57 81.56 74.64 81.28Q74.74 80.97 74.85 80.87Q74.95 80.66 75.3 80.62Q75.65 80.59 76.07 80.62Q76.53 80.66 76.98 80.69Q77.44 80.69 77.79 80.59Q78 76.59 77.89 72.22Q77.79 67.84 77.79 63.85Q77.23 63.75 76.6 63.72Q76 63.68 75.48 63.58Q74.95 63.47 74.6 63.22Q74.25 62.94 74.25 62.38Q74.36 61.96 74.64 61.79Q74.95 61.58 75.34 61.55Q75.72 61.47 76.14 61.51Q76.56 61.51 76.88 61.51L83.35 61.51Q84.93 61.51 86.54 61.55Q88.18 61.58 89.51 61.83ZM104.74 63.75Q104.67 63.85 104.63 64.41Q104.6 64.94 104.6 65.78Q104.6 66.62 104.6 67.63Q104.63 68.65 104.67 69.7Q104.7 70.72 104.7 71.69Q104.74 72.64 104.74 73.34L104.74 80.9Q104.74 81.35 104.67 81.91Q104.6 82.47 104.18 82.65Q104 82.72 103.48 82.75Q102.99 82.79 102.29 82.83Q101.62 82.83 100.85 82.83Q100.08 82.83 99.38 82.83Q98.72 82.79 98.23 82.79Q97.74 82.75 97.6 82.75Q96.9 82.75 96.51 82.58Q96.13 82.41 96.13 81.6L96.13 76.07L96.13 63.92Q96.13 63.78 95.6 63.75Q95.11 63.72 94.45 63.75Q93.82 63.75 93.22 63.78Q92.66 63.78 92.56 63.75Q92.03 63.72 91.75 63.64Q91.51 63.54 91.4 63.36Q91.33 63.19 91.33 62.88Q91.37 62.52 91.37 62Q91.58 61.69 91.86 61.58Q92.14 61.44 92.42 61.44Q92.73 61.41 93.05 61.44Q93.36 61.47 93.68 61.47L107.92 61.47Q108.48 61.47 108.8 61.51Q109.15 61.51 109.32 61.61Q109.53 61.72 109.6 61.96Q109.67 62.21 109.67 62.63Q109.67 63.02 109.46 63.22Q109.29 63.44 109.01 63.58Q108.76 63.68 108.45 63.72Q108.17 63.75 107.92 63.75Q107.08 63.75 106.24 63.64Q105.4 63.54 104.74 63.75ZM124.41 63.4L120.59 63.4Q120.45 64.17 120.42 65.39Q120.42 66.58 120.45 67.91Q120.49 69.25 120.52 70.58Q120.59 71.87 120.59 72.85Q121.01 72.99 121.36 73.03Q121.71 73.03 122.06 73.03Q122.41 72.99 122.76 72.95Q123.15 72.92 123.57 72.92Q124.34 72.95 124.83 72.99Q125.35 72.99 125.67 73.13Q125.98 73.23 126.12 73.55Q126.26 73.83 126.26 74.39Q126.26 74.81 125.56 74.95Q124.9 75.09 123.99 75.13Q123.08 75.13 122.1 75.13Q121.15 75.09 120.59 75.19Q120.45 75.79 120.45 76.42Q120.45 77.02 120.45 77.64Q120.49 78.28 120.45 78.94Q120.45 79.6 120.35 80.27Q120.7 80.41 121.36 80.41Q122.06 80.41 122.87 80.38Q123.71 80.34 124.55 80.34Q125.42 80.31 126.12 80.41Q126.82 80.48 127.24 80.72Q127.7 80.97 127.7 81.5Q127.7 82.02 127.28 82.3Q126.89 82.55 126.19 82.65Q125.49 82.75 124.55 82.75Q123.64 82.72 122.62 82.72Q121.19 82.58 119.3 82.72Q117.41 82.83 115.69 82.86Q113.98 82.86 112.75 82.58Q111.56 82.27 111.49 81.25Q111.28 77.4 111.32 73.44Q111.35 69.49 111.35 65.47Q111.35 65.01 111.35 64.48Q111.35 63.92 111.39 63.44Q111.42 62.91 111.46 62.52Q111.53 62.1 111.63 61.89Q111.88 61.69 112.65 61.58Q113.42 61.44 114.33 61.41Q115.27 61.33 116.15 61.33Q117.02 61.3 117.55 61.3L122.62 61.3Q123.29 61.3 124.13 61.23Q124.97 61.16 125.7 61.23Q126.44 61.27 126.93 61.51Q127.42 61.75 127.42 62.42Q127.42 62.88 127.07 63.08Q126.75 63.3 126.26 63.36Q125.81 63.44 125.28 63.44Q124.76 63.4 124.41 63.4Z" />
</svg>